PathFileType	3	(X/Y/Z)	squats_1__fused_aligned.trc
DataRate	CameraRate	NumFrames	NumMarkers	Units	OrigDataRate	OrigDataStartFrame	OrigNumFrames
100.0	100.0	7	19	mm	100.0	340	1650
Frame#	Time	pelvis			neck			head			hip_left			hip_right			knee_left			knee_right			ankle_left			ankle_right			heel_left			heel_right			toe_left			toe_right			shoulder_left			shoulder_right			elbow_left			elbow_right			wrist_left			wrist_right			
		X1	Y1	Z1	X2	Y2	Z2	X3	Y3	Z3	X4	Y4	Z4	X5	Y5	Z5	X6	Y6	Z6	X7	Y7	Z7	X8	Y8	Z8	X9	Y9	Z9	X10	Y10	Z10	X11	Y11	Z11	X12	Y12	Z12	X13	Y13	Z13	X14	Y14	Z14	X15	Y15	Z15	X16	Y16	Z16	X17	Y17	Z17	X18	Y18	Z18	X19	Y19	Z19	
340	3.39000	21.257570	523.349750	165.922655	20.677160	967.466608	-130.945081	8.103210	1052.720978	-281.435403	-59.437523	528.238300	168.340985	101.952676	518.461212	163.504386	-183.047122	440.751829	-227.443025	184.213638	290.176925	-152.737021	-151.676895	156.565814	48.385394	172.845857	-39.230497	39.726884	-143.868798	126.597324	99.601058	169.599506	-73.121302	87.386987	-178.994920	61.545308	-106.151227	169.637088	-138.597549	-123.035084	-152.113103	946.708890	-71.631835	197.231580	931.941132	-84.861461	-312.594705	726.211858	-8.017049	321.359658	685.770444	-44.931668	-315.545195	675.600647	-251.310639	305.385459	628.528428	-275.011976
341	3.40000	22.262769	520.609551	165.618248	21.629485	964.546367	-130.904995	8.818701	1049.809447	-281.220003	-58.424519	525.538668	168.093655	102.950071	515.680450	163.142911	-182.859519	440.712637	-227.885124	185.433204	288.746414	-153.340720	-151.443689	156.515636	47.581195	174.095436	-40.551397	38.747240	-143.618011	126.540833	98.775929	170.875660	-74.426307	86.392983	-179.214368	61.554377	-106.895415	170.593805	-139.994480	-124.004478	-151.082676	943.826311	-71.603754	198.108446	929.072778	-84.851395	-311.626318	723.287504	-8.420239	322.766358	683.342742	-44.614203	-314.163873	673.318917	-251.888139	307.240307	626.528520	-274.832774
342	3.41000	23.267968	517.869353	165.313840	22.581810	961.626125	-130.864910	9.534192	1046.897916	-281.004603	-57.411515	522.839035	167.846324	103.947466	512.899688	162.781436	-182.671917	440.673446	-228.327224	186.652770	287.315902	-153.944419	-151.210484	156.465457	46.776997	175.345015	-41.872297	37.767596	-143.367224	126.484341	97.950800	172.151815	-75.731312	85.398979	-179.433816	61.563447	-107.639603	171.550521	-141.391412	-124.973872	-150.052248	940.943731	-71.575673	198.985311	926.204425	-84.841329	-310.657932	720.363151	-8.823429	324.173058	680.915041	-44.296738	-312.782551	671.037187	-252.465640	309.095154	624.528612	-274.653573
343	3.42000	24.273168	515.129155	165.009433	23.534134	958.705884	-130.824824	10.249684	1043.986385	-280.789202	-56.398511	520.139402	167.598994	104.944862	510.118926	162.419961	-182.484314	440.634254	-228.769324	187.872337	285.885390	-154.548117	-150.977278	156.415278	45.972799	176.594595	-43.193197	36.787953	-143.116437	126.427850	97.125671	173.427969	-77.036317	84.404975	-179.653264	61.572516	-108.383792	172.507238	-142.788343	-125.943266	-149.021820	938.061152	-71.547593	199.862177	923.336071	-84.831263	-309.689545	717.438798	-9.226619	325.579757	678.487340	-43.979273	-311.401229	668.755457	-253.043140	310.950002	622.528704	-274.474372
344	3.43000	25.278367	512.388956	164.705026	24.486459	955.785642	-130.784738	10.965175	1041.074855	-280.573802	-55.385508	517.439770	167.351663	105.942257	507.338165	162.058486	-182.296711	440.595062	-229.211424	189.091903	284.454878	-155.151816	-150.744073	156.365100	45.168601	177.844174	-44.514097	35.808309	-142.865650	126.371358	96.300542	174.704124	-78.341322	83.410971	-179.872712	61.581585	-109.127980	173.463954	-144.185275	-126.912660	-147.991392	935.178572	-71.519512	200.739043	920.467718	-84.821196	-308.721158	714.514444	-9.629808	326.986457	676.059639	-43.661808	-310.019907	666.473728	-253.620641	312.804850	620.528797	-274.295170
345	3.44000	26.485848	512.291189	166.203603	25.324414	955.944422	-129.181997	11.803118	1041.657253	-278.827408	-54.173672	517.234357	168.826892	107.145370	507.348042	163.580410	-181.092604	440.914524	-227.984177	190.565892	286.441312	-155.111505	-149.628592	156.022097	45.734240	179.435845	-42.556220	36.401820	-141.767446	125.906938	96.791253	176.301141	-76.404577	84.030471	-178.731038	61.631219	-108.713349	175.448925	-142.103359	-126.321919	-147.197511	934.966887	-69.999027	201.656244	920.539936	-83.259058	-307.901750	713.879472	-9.115606	328.166250	675.999957	-42.943620	-308.767568	666.400926	-253.244593	313.826175	621.066297	-273.762083
346	3.45000	27.693329	512.193422	167.702179	26.162369	956.103202	-127.579255	12.641062	1042.239652	-277.081014	-52.961836	517.028945	170.302121	108.348484	507.357920	165.102333	-179.888497	441.233985	-226.756931	192.039881	288.427745	-155.071193	-148.513112	155.679095	46.299878	181.027515	-40.598343	36.995331	-140.669242	125.442517	97.281964	177.898157	-74.467832	84.649972	-177.589363	61.680853	-108.298718	177.433896	-140.021444	-125.731178	-146.403629	934.755201	-68.478542	202.573445	920.612154	-81.696920	-307.082342	713.244500	-8.601404	329.346043	675.940275	-42.225432	-307.515230	666.328125	-252.868545	314.847499	621.603797	-273.228996
